<svg width="200" height="200" viewBox="0 0 200 200" fill="none" xmlns="http://www.w3.org/2000/svg">
<path d="M27.004 170.204C27.004 173.28 29.494 175.779 32.569 175.779H167.886C170.964 175.779 173.456 173.279 173.456 170.204V80.7786C173.456 77.7016 170.964 75.2065 167.886 75.2065H32.569C29.494 75.2065 27.004 77.7016 27.004 80.7786V170.204Z" fill="#433DB3"/>
<path d="M32.545 175.779H167.91C170.976 175.763 173.455 173.276 173.455 170.206V144.191C153.379 140.191 127.926 137.799 100.225 137.799C72.532 137.799 47.073 140.191 27 144.191V170.206C27 173.276 29.48 175.764 32.545 175.779Z" fill="url(#paint0_linear_2866_617)"/>
<path d="M27.004 108.992V93.1357H173.457V108.992H27.004Z" fill="#35308D"/>
<path d="M56.129 30.2427V118.35C56.129 121.426 58.129 124.699 60.596 125.66L168.992 174.373C171.455 175.335 173.455 173.616 173.455 170.54V81.1157C173.455 78.0387 172.273 75.3527 168.992 73.8037L63.676 25.2795C60.19 24.1895 56.129 26.3797 56.129 30.2397V30.2427Z" fill="url(#paint1_linear_2866_617)"/>
<path d="M108.252 59.7646L120.137 63.9666V71.3687C122.684 72.8497 125.032 74.5715 127.198 76.5305C129.546 78.6675 131.178 80.3847 132.098 81.6807L132.852 82.7546L137.414 79.6436L137.891 97.1865L120.75 91.5815L125.02 88.4246L124.166 87.2805C123.547 86.4745 122.254 85.2357 120.275 83.5627C118.296 81.8917 116.263 80.6806 114.173 79.9426C111.651 79.0516 109.622 78.9786 108.089 79.7266C106.556 80.4736 105.794 81.7647 105.794 83.5977C105.794 85.6597 106.829 87.6826 108.907 89.6636C110.1 90.8026 111.454 91.9377 112.943 93.0527C114.04 93.8767 115.21 94.6866 116.469 95.4976C118.41 96.7476 120.688 98.3837 122.641 99.7617C124.157 100.802 125.661 101.879 127.166 102.991C130.131 105.186 132.664 107.973 134.75 111.35C136.844 114.723 137.889 118.433 137.889 122.472C137.889 126.683 136.418 129.922 133.484 132.174C130.547 134.434 126.587 135.124 121.602 134.247L120.135 133.718V139.875L108.25 135.674V128.998C106.162 127.687 104.205 126.205 102.387 124.555C100.037 122.418 98.407 120.703 97.487 119.405L96.727 118.333L92.379 121.842L91.691 103.9L108.772 109.731L104.568 112.661L105.419 113.808C106.034 114.614 107.333 115.851 109.31 117.526C111.287 119.197 113.322 120.407 115.408 121.146C117.933 122.036 119.961 122.108 121.492 121.36C123.023 120.615 123.797 119.321 123.797 117.488C123.797 115.427 122.754 113.404 120.68 111.424C119.483 110.284 118.135 109.152 116.645 108.036C115.545 107.214 114.37 106.399 113.113 105.591C111.173 104.34 109.236 102.938 107.282 101.561C105.653 100.451 104.038 99.2897 102.417 98.0938C99.452 95.8997 96.925 93.1145 94.831 89.7375C92.738 86.3635 91.693 82.6547 91.693 78.6147C91.693 74.4027 93.163 71.1696 96.102 68.9106C99.038 66.6556 102.997 65.9646 107.986 66.8386L108.252 59.7646Z" fill="#18D5F5"/>
<defs>
<linearGradient id="paint0_linear_2866_617" x1="26.999" y1="156.789" x2="173.454" y2="156.789" gradientUnits="userSpaceOnUse">
<stop stop-color="#2C3CC9"/>
<stop offset="0.6784" stop-color="#9068FC"/>
<stop offset="1" stop-color="#9068FC"/>
</linearGradient>
<linearGradient id="paint1_linear_2866_617" x1="51.7754" y1="43.1306" x2="177.872" y2="156.319" gradientUnits="userSpaceOnUse">
<stop stop-color="#9068FC"/>
<stop offset="0.2902" stop-color="#9068FC"/>
<stop offset="0.8902" stop-color="#2C3CC9"/>
<stop offset="1" stop-color="#2C3CC9"/>
</linearGradient>
</defs>
</svg>
